<?xml version="1.0" standalone="no"?>
<!DOCTYPE svg PUBLIC "-//W3C//DTD SVG 20010904//EN"
 "http://www.w3.org/TR/2001/REC-SVG-20010904/DTD/svg10.dtd">
<svg version="1.0" xmlns="http://www.w3.org/2000/svg"
 width="363.000000pt" height="363.000000pt" viewBox="0 0 363.000000 363.000000"
 preserveAspectRatio="xMidYMid meet">
<metadata>
Created by potrace 1.14, written by Peter Selinger 2001-2017
</metadata>
<g transform="translate(0.000000,363.000000) scale(0.100000,-0.100000)"
fill="#000000" stroke="none">
<path d="M125 3614 c-53 -27 -96 -80 -113 -136 -3 -13 -8 -346 -9 -740 l-3
-718 457 0 458 0 110 191 c61 105 117 203 125 217 83 146 104 182 121 212 12
19 42 71 67 115 25 44 60 92 76 107 74 66 205 59 274 -14 11 -13 31 -46 43
-73 12 -28 30 -69 40 -92 11 -23 19 -44 19 -47 0 -3 11 -29 24 -58 29 -64 51
-117 198 -463 63 -148 118 -279 122 -290 7 -17 11 -14 31 25 13 25 21 48 19
52 -9 14 85 97 122 107 26 7 255 11 682 11 l643 0 -3 723 -3 723 -25 48 c-14
27 -42 63 -63 80 l-39 31 -1671 2 c-1502 3 -1675 1 -1702 -13z"/>
<path d="M1468 2183 c-25 -43 -89 -154 -143 -248 -54 -93 -104 -180 -111 -193
-30 -57 -91 -106 -146 -116 -13 -3 -258 -5 -546 -5 l-523 -1 3 -728 3 -728 25
-48 c14 -27 42 -63 63 -80 l39 -31 1683 0 1683 0 39 31 c21 17 49 53 63 80
l25 48 3 731 3 730 -562 -2 c-309 -1 -565 -5 -569 -10 -4 -4 -47 -102 -95
-218 -98 -234 -126 -273 -206 -293 -77 -19 -167 10 -208 66 -11 16 -61 125
-111 243 -50 118 -102 238 -116 267 -13 29 -24 55 -24 57 0 5 -64 157 -105
250 -12 28 -41 97 -65 155 -24 58 -47 109 -51 113 -4 5 -27 -26 -51 -70z"/>
</g>
</svg>
