<svg width="127" height="97" viewBox="0 0 127 97" fill="none" xmlns="http://www.w3.org/2000/svg">
<path d="M120.479 96.3054H7.26241C3.67641 96.3054 0.750244 93.3793 0.750244 89.7933V6.49782C0.750244 2.91183 3.67641 0 7.26241 0H120.494C124.08 0 126.992 2.91183 126.992 6.49782V89.7933C126.992 93.3793 124.08 96.3054 120.494 96.3054H120.479ZM7.26241 4.11672C5.97145 4.11672 4.86696 5.20686 4.86696 6.49782V89.7933C4.86696 91.0842 5.95711 92.1887 7.26241 92.1887H120.494C121.799 92.1887 122.875 91.1129 122.875 89.7933V6.49782C122.875 5.17817 121.813 4.11672 120.494 4.11672H7.26241Z" fill="#04998B"/>
<path d="M73.8328 69.0859C73.0008 69.0859 72.2693 68.5982 71.9394 67.838L53.8373 25.2938L39.106 50.8117C38.7331 51.4429 38.0589 51.8445 37.3274 51.8445H2.81578C1.6826 51.8445 0.750244 50.9265 0.750244 49.7933C0.750244 48.6601 1.66826 47.7278 2.81578 47.7278H36.1368L52.3312 19.6709C52.7185 18.9968 53.4643 18.5951 54.2389 18.6525C55.0135 18.6956 55.702 19.1832 56.0032 19.9004L73.8184 61.7705L79.2261 48.99C79.5417 48.2298 80.3019 47.7278 81.1195 47.7278H124.912C126.045 47.7278 126.977 48.6458 126.977 49.7933C126.977 50.9408 126.059 51.8445 124.912 51.8445H82.4822L75.7262 67.8524C75.4106 68.6126 74.6647 69.1146 73.8328 69.1146V69.0859Z" fill="#04998B"/>
</svg>
