<svg width="187" height="139" viewBox="0 0 187 139" fill="none" xmlns="http://www.w3.org/2000/svg">
<path d="M182.608 138.406V114.604H186.892V138.406H182.608Z" fill="white"/>
<path d="M168.186 138.882C166.985 138.882 165.908 138.678 164.956 138.27C164.004 137.84 163.244 137.228 162.677 136.434C162.133 135.618 161.861 134.632 161.861 133.476C161.861 132.32 162.133 131.356 162.677 130.586C163.244 129.792 164.015 129.203 164.99 128.817C165.987 128.409 167.121 128.205 168.39 128.205H173.015V127.253C173.015 126.46 172.765 125.814 172.266 125.315C171.768 124.794 170.974 124.533 169.886 124.533C168.821 124.533 168.027 124.782 167.506 125.281C166.985 125.757 166.645 126.38 166.486 127.151L162.541 125.825C162.813 124.964 163.244 124.181 163.834 123.479C164.446 122.753 165.25 122.175 166.248 121.745C167.268 121.291 168.503 121.064 169.954 121.064C172.176 121.064 173.933 121.62 175.225 122.731C176.517 123.841 177.163 125.451 177.163 127.559V133.85C177.163 134.53 177.48 134.87 178.115 134.87H179.475V138.406H176.619C175.78 138.406 175.089 138.202 174.545 137.794C174.001 137.386 173.729 136.842 173.729 136.162V136.128H173.083C172.992 136.4 172.788 136.763 172.471 137.216C172.153 137.647 171.654 138.032 170.974 138.372C170.294 138.712 169.365 138.882 168.186 138.882ZM168.934 135.414C170.136 135.414 171.11 135.085 171.858 134.428C172.629 133.748 173.015 132.852 173.015 131.742V131.402H168.696C167.903 131.402 167.279 131.572 166.826 131.912C166.373 132.252 166.146 132.728 166.146 133.34C166.146 133.952 166.384 134.451 166.86 134.836C167.336 135.221 168.027 135.414 168.934 135.414Z" fill="white"/>
<path d="M150.948 138.882C149.316 138.882 147.831 138.542 146.493 137.862C145.179 137.182 144.136 136.196 143.365 134.904C142.594 133.612 142.209 132.048 142.209 130.211V129.735C142.209 127.899 142.594 126.335 143.365 125.043C144.136 123.751 145.179 122.765 146.493 122.085C147.831 121.404 149.316 121.064 150.948 121.064C152.557 121.064 153.94 121.348 155.096 121.915C156.253 122.481 157.182 123.263 157.885 124.261C158.61 125.236 159.086 126.346 159.313 127.593L155.164 128.477C155.074 127.797 154.87 127.185 154.552 126.641C154.235 126.097 153.782 125.666 153.192 125.349C152.625 125.032 151.911 124.873 151.05 124.873C150.189 124.873 149.406 125.066 148.704 125.451C148.024 125.814 147.48 126.369 147.072 127.117C146.686 127.843 146.493 128.738 146.493 129.803V130.143C146.493 131.209 146.686 132.116 147.072 132.864C147.48 133.589 148.024 134.145 148.704 134.53C149.406 134.893 150.189 135.074 151.05 135.074C152.342 135.074 153.317 134.745 153.974 134.088C154.654 133.408 155.085 132.524 155.266 131.436L159.415 132.422C159.12 133.623 158.61 134.723 157.885 135.72C157.182 136.695 156.253 137.466 155.096 138.032C153.94 138.599 152.557 138.882 150.948 138.882Z" fill="white"/>
<path d="M133.993 138.406V121.541H138.277V138.406H133.993ZM136.135 119.568C135.364 119.568 134.707 119.319 134.163 118.82C133.641 118.322 133.381 117.664 133.381 116.848C133.381 116.032 133.641 115.375 134.163 114.876C134.707 114.377 135.364 114.128 136.135 114.128C136.928 114.128 137.586 114.377 138.107 114.876C138.629 115.375 138.889 116.032 138.889 116.848C138.889 117.664 138.629 118.322 138.107 118.82C137.586 119.319 136.928 119.568 136.135 119.568Z" fill="white"/>
<path d="M119.11 138.882C117.772 138.882 116.514 138.554 115.335 137.896C114.179 137.216 113.25 136.23 112.547 134.938C111.844 133.646 111.493 132.082 111.493 130.246V129.701C111.493 127.865 111.844 126.301 112.547 125.009C113.25 123.717 114.179 122.742 115.335 122.085C116.491 121.405 117.749 121.064 119.11 121.064C120.13 121.064 120.98 121.189 121.66 121.439C122.363 121.665 122.929 121.96 123.36 122.323C123.791 122.685 124.119 123.071 124.346 123.479H124.958V114.604H129.243V138.406H125.026V136.366H124.414C124.029 137.001 123.428 137.579 122.612 138.1C121.819 138.622 120.651 138.882 119.11 138.882ZM120.402 135.142C121.716 135.142 122.816 134.723 123.7 133.884C124.584 133.022 125.026 131.776 125.026 130.144V129.803C125.026 128.171 124.584 126.936 123.7 126.097C122.839 125.236 121.739 124.805 120.402 124.805C119.087 124.805 117.987 125.236 117.103 126.097C116.219 126.936 115.777 128.171 115.777 129.803V130.144C115.777 131.776 116.219 133.022 117.103 133.884C117.987 134.723 119.087 135.142 120.402 135.142Z" fill="white"/>
<path d="M100.368 138.882C98.6906 138.882 97.2058 138.531 95.9136 137.828C94.6442 137.103 93.6467 136.094 92.9213 134.802C92.2186 133.487 91.8672 131.946 91.8672 130.177V129.769C91.8672 128.001 92.2186 126.471 92.9213 125.179C93.624 123.864 94.6102 122.855 95.8796 122.153C97.1491 121.427 98.6226 121.064 100.3 121.064C101.955 121.064 103.394 121.438 104.619 122.187C105.843 122.912 106.795 123.932 107.475 125.247C108.155 126.539 108.495 128.047 108.495 129.769V131.232H96.2197C96.265 132.388 96.6957 133.328 97.5118 134.054C98.3279 134.779 99.3254 135.142 100.504 135.142C101.706 135.142 102.59 134.881 103.156 134.36C103.723 133.839 104.154 133.26 104.449 132.626L107.951 134.462C107.634 135.051 107.169 135.697 106.557 136.4C105.967 137.08 105.174 137.67 104.177 138.168C103.179 138.644 101.91 138.882 100.368 138.882ZM96.2537 128.035H104.143C104.052 127.06 103.655 126.278 102.952 125.689C102.272 125.1 101.377 124.805 100.266 124.805C99.11 124.805 98.1919 125.1 97.5118 125.689C96.8317 126.278 96.4124 127.06 96.2537 128.035Z" fill="white"/>
<path d="M62.562 138.406V114.604H70.8929L75.0074 135.346H75.6195L79.7339 114.604H88.0649V138.406H83.7124V117.902H83.1003L79.0199 138.406H71.607L67.5266 117.902H66.9145V138.406H62.562Z" fill="white"/>
<path d="M39.3008 138.406V134.462H42.4291V118.548H39.3008V114.604H51.5422C52.993 114.604 54.2511 114.853 55.3166 115.352C56.4047 115.828 57.2435 116.519 57.8329 117.426C58.4449 118.31 58.751 119.376 58.751 120.622V120.962C58.751 122.051 58.5469 122.946 58.1389 123.649C57.7309 124.329 57.2435 124.862 56.6767 125.247C56.1327 125.61 55.6113 125.87 55.1126 126.029V126.641C55.6113 126.777 56.1553 127.038 56.7447 127.423C57.3341 127.786 57.8329 128.319 58.2409 129.021C58.6716 129.724 58.887 130.642 58.887 131.776V132.116C58.887 133.431 58.5809 134.564 57.9689 135.516C57.3568 136.446 56.5067 137.16 55.4186 137.658C54.3531 138.157 53.1063 138.406 51.6782 138.406H39.3008ZM46.9176 134.326H51.1341C52.1089 134.326 52.891 134.088 53.4804 133.612C54.0924 133.136 54.3985 132.456 54.3985 131.572V131.232C54.3985 130.348 54.1038 129.667 53.5144 129.191C52.925 128.715 52.1316 128.477 51.1341 128.477H46.9176V134.326ZM46.9176 124.397H51.0661C51.9955 124.397 52.755 124.159 53.3444 123.683C53.9564 123.207 54.2625 122.549 54.2625 121.711V121.371C54.2625 120.509 53.9678 119.852 53.3784 119.398C52.789 118.922 52.0182 118.684 51.0661 118.684H46.9176V124.397Z" fill="white"/>
<path d="M16.7976 138.406L23.0543 114.604H30.8752L37.1319 138.406H32.5074L31.2152 133.17H22.7143L21.4221 138.406H16.7976ZM23.7684 129.021H30.1611L27.2708 117.426H26.6587L23.7684 129.021Z" fill="white"/>
<path d="M0 138.406V114.604H4.4885V134.326H15.3697V138.406H0Z" fill="white"/>
<path d="M151.479 96.3054H38.2624C34.6764 96.3054 31.7502 93.3793 31.7502 89.7933V6.49782C31.7502 2.91183 34.6764 0 38.2624 0H151.494C155.08 0 157.992 2.91183 157.992 6.49782V89.7933C157.992 93.3793 155.08 96.3054 151.494 96.3054H151.479ZM38.2624 4.11672C36.9715 4.11672 35.867 5.20686 35.867 6.49782V89.7933C35.867 91.0842 36.9571 92.1887 38.2624 92.1887H151.494C152.799 92.1887 153.875 91.1129 153.875 89.7933V6.49782C153.875 5.17817 152.813 4.11672 151.494 4.11672H38.2624Z" fill="white"/>
<path d="M104.833 69.0859C104.001 69.0859 103.269 68.5982 102.939 67.838L84.8373 25.2938L70.106 50.8117C69.7331 51.4429 69.0589 51.8445 68.3274 51.8445H33.8158C32.6826 51.8445 31.7502 50.9265 31.7502 49.7933C31.7502 48.6601 32.6683 47.7278 33.8158 47.7278H67.1368L83.3312 19.6709C83.7185 18.9968 84.4643 18.5951 85.2389 18.6525C86.0135 18.6956 86.702 19.1832 87.0032 19.9004L104.818 61.7705L110.226 48.99C110.542 48.2298 111.302 47.7278 112.12 47.7278H155.912C157.045 47.7278 157.977 48.6458 157.977 49.7933C157.977 50.9408 157.059 51.8445 155.912 51.8445H113.482L106.726 67.8524C106.411 68.6126 105.665 69.1146 104.833 69.1146V69.0859Z" fill="white"/>
</svg>
