<svg width="121" height="93" viewBox="0 0 121 93" fill="none" xmlns="http://www.w3.org/2000/svg">
<g clip-path="url(#clip0_89_708)">
<path d="M0.54 39.65H30.46L45.66 13.31C46.9 11.15 49.29 9.83 51.83 10C54.32 10.15 56.54 11.71 57.52 14.04L71.49 46.88L72.83 43.72V43.7C73.87 41.23 76.3 39.63 78.96 39.63C79.06 39.63 79.16 39.63 79.26 39.64H121V4C120.09 1.66 117.82 0 115.16 0H5.86C3.19 0 0.91 1.67 0 4.01V39.68C0.18 39.66 0.36 39.65 0.54 39.65Z" fill="white"/>
<path d="M83.36 52.91L77.65 66.44C76.63 68.93 74.19 70.53 71.53 70.53C71.22 70.53 70.91 70.5 70.61 70.44C68.33 70.13 66.35 68.65 65.42 66.48L50.52 31.45L40 49.68C38.85 51.59 36.74 52.92 34.3 52.92H0V88.94C0.91 91.29 3.19 92.96 5.86 92.96H115.16C117.82 92.96 120.09 91.29 121 88.95V52.91H83.36Z" fill="white"/>
</g>
<defs>
<clipPath id="clip0_89_708">
<rect width="121" height="92.96" fill="white"/>
</clipPath>
</defs>
</svg>
