<svg width="187" height="137" viewBox="0 0 187 137" fill="none" xmlns="http://www.w3.org/2000/svg">
<path d="M182.608 136.406V112.604H186.892V136.406H182.608Z" fill="white"/>
<path d="M168.186 136.883C166.985 136.883 165.908 136.678 164.956 136.27C164.004 135.84 163.244 135.228 162.677 134.434C162.133 133.618 161.861 132.632 161.861 131.476C161.861 130.32 162.133 129.356 162.677 128.586C163.244 127.792 164.015 127.203 164.99 126.817C165.987 126.409 167.121 126.205 168.39 126.205H173.015V125.253C173.015 124.46 172.765 123.814 172.266 123.315C171.768 122.794 170.974 122.533 169.886 122.533C168.821 122.533 168.027 122.782 167.506 123.281C166.985 123.757 166.645 124.38 166.486 125.151L162.541 123.825C162.813 122.964 163.244 122.182 163.834 121.479C164.446 120.753 165.25 120.175 166.248 119.745C167.268 119.291 168.503 119.065 169.954 119.065C172.176 119.065 173.933 119.62 175.225 120.731C176.517 121.841 177.163 123.451 177.163 125.559V131.85C177.163 132.53 177.48 132.87 178.115 132.87H179.475V136.406H176.619C175.78 136.406 175.089 136.202 174.545 135.794C174.001 135.386 173.729 134.842 173.729 134.162V134.128H173.083C172.992 134.4 172.788 134.763 172.471 135.216C172.153 135.647 171.654 136.032 170.974 136.372C170.294 136.712 169.365 136.883 168.186 136.883ZM168.934 133.414C170.136 133.414 171.11 133.085 171.858 132.428C172.629 131.748 173.015 130.853 173.015 129.742V129.402H168.696C167.903 129.402 167.279 129.572 166.826 129.912C166.373 130.252 166.146 130.728 166.146 131.34C166.146 131.952 166.384 132.451 166.86 132.836C167.336 133.221 168.027 133.414 168.934 133.414Z" fill="white"/>
<path d="M150.948 136.883C149.316 136.883 147.831 136.542 146.493 135.862C145.179 135.182 144.136 134.196 143.365 132.904C142.594 131.612 142.209 130.048 142.209 128.212V127.735C142.209 125.899 142.594 124.335 143.365 123.043C144.136 121.751 145.179 120.765 146.493 120.085C147.831 119.405 149.316 119.065 150.948 119.065C152.557 119.065 153.94 119.348 155.096 119.915C156.253 120.481 157.182 121.263 157.885 122.261C158.61 123.236 159.086 124.346 159.313 125.593L155.164 126.477C155.074 125.797 154.87 125.185 154.552 124.641C154.235 124.097 153.782 123.666 153.192 123.349C152.625 123.032 151.911 122.873 151.05 122.873C150.189 122.873 149.406 123.066 148.704 123.451C148.024 123.814 147.48 124.369 147.072 125.117C146.686 125.843 146.493 126.738 146.493 127.803V128.144C146.493 129.209 146.686 130.116 147.072 130.864C147.48 131.589 148.024 132.145 148.704 132.53C149.406 132.893 150.189 133.074 151.05 133.074C152.342 133.074 153.317 132.745 153.974 132.088C154.654 131.408 155.085 130.524 155.266 129.436L159.415 130.422C159.12 131.623 158.61 132.723 157.885 133.72C157.182 134.695 156.253 135.466 155.096 136.032C153.94 136.599 152.557 136.883 150.948 136.883Z" fill="white"/>
<path d="M133.993 136.407V119.541H138.277V136.407H133.993ZM136.135 117.568C135.364 117.568 134.707 117.319 134.163 116.82C133.641 116.322 133.381 115.664 133.381 114.848C133.381 114.032 133.641 113.375 134.163 112.876C134.707 112.377 135.364 112.128 136.135 112.128C136.928 112.128 137.586 112.377 138.107 112.876C138.629 113.375 138.889 114.032 138.889 114.848C138.889 115.664 138.629 116.322 138.107 116.82C137.586 117.319 136.928 117.568 136.135 117.568Z" fill="white"/>
<path d="M119.11 136.883C117.772 136.883 116.514 136.554 115.335 135.896C114.179 135.216 113.25 134.23 112.547 132.938C111.844 131.646 111.493 130.082 111.493 128.246V127.702C111.493 125.865 111.844 124.301 112.547 123.009C113.25 121.717 114.179 120.742 115.335 120.085C116.491 119.405 117.749 119.065 119.11 119.065C120.13 119.065 120.98 119.189 121.66 119.439C122.363 119.665 122.929 119.96 123.36 120.323C123.791 120.685 124.119 121.071 124.346 121.479H124.958V112.604H129.243V136.406H125.026V134.366H124.414C124.029 135.001 123.428 135.579 122.612 136.1C121.819 136.622 120.651 136.883 119.11 136.883ZM120.402 133.142C121.716 133.142 122.816 132.723 123.7 131.884C124.584 131.023 125.026 129.776 125.026 128.144V127.804C125.026 126.171 124.584 124.936 123.7 124.097C122.839 123.236 121.739 122.805 120.402 122.805C119.087 122.805 117.987 123.236 117.103 124.097C116.219 124.936 115.777 126.171 115.777 127.804V128.144C115.777 129.776 116.219 131.023 117.103 131.884C117.987 132.723 119.087 133.142 120.402 133.142Z" fill="white"/>
<path d="M100.368 136.883C98.6906 136.883 97.2058 136.531 95.9136 135.828C94.6442 135.103 93.6467 134.094 92.9213 132.802C92.2186 131.487 91.8672 129.946 91.8672 128.178V127.769C91.8672 126.001 92.2186 124.471 92.9213 123.179C93.624 121.864 94.6102 120.855 95.8796 120.153C97.1491 119.427 98.6226 119.065 100.3 119.065C101.955 119.065 103.394 119.439 104.619 120.187C105.843 120.912 106.795 121.932 107.475 123.247C108.155 124.539 108.495 126.047 108.495 127.769V129.232H96.2197C96.265 130.388 96.6957 131.329 97.5118 132.054C98.3279 132.779 99.3254 133.142 100.504 133.142C101.706 133.142 102.59 132.881 103.156 132.36C103.723 131.839 104.154 131.261 104.449 130.626L107.951 132.462C107.634 133.051 107.169 133.697 106.557 134.4C105.967 135.08 105.174 135.67 104.177 136.168C103.179 136.644 101.91 136.883 100.368 136.883ZM96.2537 126.035H104.143C104.052 125.061 103.655 124.278 102.952 123.689C102.272 123.1 101.377 122.805 100.266 122.805C99.11 122.805 98.1919 123.1 97.5118 123.689C96.8317 124.278 96.4124 125.061 96.2537 126.035Z" fill="white"/>
<path d="M62.562 136.406V112.604H70.8929L75.0074 133.346H75.6195L79.7339 112.604H88.0649V136.406H83.7124V115.902H83.1003L79.0199 136.406H71.607L67.5266 115.902H66.9145V136.406H62.562Z" fill="white"/>
<path d="M39.3008 136.406V132.462H42.4291V116.548H39.3008V112.604H51.5422C52.993 112.604 54.2511 112.853 55.3166 113.352C56.4047 113.828 57.2435 114.519 57.8329 115.426C58.4449 116.31 58.751 117.376 58.751 118.622V118.963C58.751 120.051 58.5469 120.946 58.1389 121.649C57.7309 122.329 57.2435 122.862 56.6767 123.247C56.1327 123.61 55.6113 123.87 55.1126 124.029V124.641C55.6113 124.777 56.1553 125.038 56.7447 125.423C57.3341 125.786 57.8329 126.319 58.2409 127.021C58.6716 127.724 58.887 128.642 58.887 129.776V130.116C58.887 131.431 58.5809 132.564 57.9689 133.516C57.3568 134.446 56.5067 135.16 55.4186 135.658C54.3531 136.157 53.1063 136.406 51.6782 136.406H39.3008ZM46.9176 132.326H51.1341C52.1089 132.326 52.891 132.088 53.4804 131.612C54.0924 131.136 54.3985 130.456 54.3985 129.572V129.232C54.3985 128.348 54.1038 127.668 53.5144 127.191C52.925 126.715 52.1316 126.477 51.1341 126.477H46.9176V132.326ZM46.9176 122.397H51.0661C51.9955 122.397 52.755 122.159 53.3444 121.683C53.9564 121.207 54.2625 120.549 54.2625 119.711V119.371C54.2625 118.509 53.9678 117.852 53.3784 117.398C52.789 116.922 52.0182 116.684 51.0661 116.684H46.9176V122.397Z" fill="white"/>
<path d="M16.7976 136.406L23.0543 112.604H30.8752L37.1319 136.406H32.5074L31.2152 131.17H22.7143L21.4221 136.406H16.7976ZM23.7684 127.021H30.1611L27.2708 115.426H26.6587L23.7684 127.021Z" fill="white"/>
<path d="M0 136.406V112.604H4.4885V132.326H15.3697V136.406H0Z" fill="white"/>
<g clip-path="url(#clip0_89_703)">
<path d="M34.54 39.65H64.46L79.66 13.31C80.9 11.15 83.29 9.83 85.83 10C88.32 10.15 90.54 11.71 91.52 14.04L105.49 46.88L106.83 43.72V43.7C107.87 41.23 110.3 39.63 112.96 39.63C113.06 39.63 113.16 39.63 113.26 39.64H155V4C154.09 1.66 151.82 0 149.16 0H39.86C37.19 0 34.91 1.67 34 4.01V39.68C34.18 39.66 34.36 39.65 34.54 39.65Z" fill="white"/>
<path d="M117.36 52.91L111.65 66.44C110.63 68.93 108.19 70.53 105.53 70.53C105.22 70.53 104.91 70.5 104.61 70.44C102.33 70.13 100.35 68.65 99.42 66.48L84.52 31.45L74 49.68C72.85 51.59 70.74 52.92 68.3 52.92H34V88.94C34.91 91.29 37.19 92.96 39.86 92.96H149.16C151.82 92.96 154.09 91.29 155 88.95V52.91H117.36Z" fill="white"/>
</g>
<defs>
<clipPath id="clip0_89_703">
<rect width="121" height="92.96" fill="white" transform="translate(34)"/>
</clipPath>
</defs>
</svg>
